<svg version="1.1" id="Layer_1" xmlns="http://www.w3.org/2000/svg" xmlns:xlink="http://www.w3.org/1999/xlink" x="0px" y="0px" width="1200px" height="1200px" viewBox="0 0 1200 1200" enable-background="new 0 0 1200 1200" xml:space="preserve">
<g>
	<path fill="#575756" d="M795.733,347.019c-23.364,0-46.155,2.293-68.231,6.631c-55.398-123.307-179.176-209.277-323.234-209.277&#10;&#9;&#9;C208.679,144.373,50,302.944,50,498.677c0,195.696,158.679,354.3,354.267,354.3c23.364,0,46.086-2.4,68.158-6.77&#10;&#9;&#9;c55.403,123.45,179.249,209.42,323.307,209.42c195.659,0,354.267-158.678,354.267-354.267&#10;&#9;&#9;C1150,505.627,991.392,347.019,795.733,347.019z M404.267,777.547c-153.948,0-278.796-124.815-278.796-278.87&#10;&#9;&#9;c0-154.021,124.848-278.873,278.796-278.873c110.086,0,205.124,63.824,250.489,156.388&#10;&#9;&#9;c-63.644,27.698-117.612,73.534-155.309,130.976c-1.794-2.114-3.655-4.194-5.519-6.091c-8.242-8.205-18.85-15.159-31.749-20.894&#10;&#9;&#9;c-6.811-2.903-20.715-7.023-41.715-12.253V347.595c13.548,2.793,24.296,8.565,32.108,17.305&#10;&#9;&#9;c7.812,8.711,12.902,21.25,15.339,37.664l43.146-6.521c-3.728-26.377-14.693-47.23-32.897-62.32&#10;&#9;&#9;c-14.263-11.897-33.47-19.027-57.696-21.32v-19.995h-24.582v19.995c-27.665,2.759-48.592,10.319-62.639,22.681&#10;&#9;&#9;c-21.001,18.458-31.463,42.467-31.463,72.139c0,16.663,3.581,31.569,10.748,44.721c7.24,13.082,17.416,23.364,30.748,30.784&#10;&#9;&#9;c17.917,10.069,35.476,16.7,52.605,19.926v132.841c-16.414-1.721-30.461-9.999-42.141-24.799&#10;&#9;&#9;c-8.315-10.535-13.904-26.986-17.203-49.381l-41.928,7.882c1.508,21.647,7.027,39.884,16.558,54.9&#10;&#9;&#9;c9.459,15.016,20.783,25.837,33.755,32.574c13.045,6.701,30.031,11.398,50.959,14.014v41.748h24.582V670.22&#10;&#9;&#9;c7.956-0.323,15.482-1.471,22.648-3.193c-1.145,11.254-1.648,22.648-1.648,34.332c0,24.835,2.51,49.095,7.453,72.458&#10;&#9;&#9;C434.368,776.255,419.533,777.547,404.267,777.547z M449.993,623.918c-8.455,6.165-18.348,10.143-29.529,11.577V508.493&#10;&#9;&#9;c22.362,7.24,37.271,15.482,44.867,24.656c4.301,5.302,7.24,11.717,9.031,18.994C463.754,574.897,455.586,598.87,449.993,623.918z&#10;&#9;&#9; M395.882,347.129v115.462c-19.063-5.699-32.538-13.368-40.423-22.971c-7.953-9.533-11.967-21.503-11.967-35.694&#10;&#9;&#9;c0-14.37,4.657-26.802,14.047-37.304C366.856,356.123,379.615,349.602,395.882,347.129z M795.733,980.193&#10;&#9;&#9;c-154.021,0-278.943-124.848-278.943-278.833c0-154.054,124.922-278.943,278.943-278.943s278.87,124.889,278.87,278.943&#10;&#9;&#9;C1074.602,855.344,949.754,980.193,795.733,980.193z" style="fill: rgb(255, 255, 255);"/>
	<path fill="#575756" d="M885.247,703.69c-8.099-8.172-18.704-15.122-31.675-20.894c-6.811-2.936-20.714-7.023-41.785-12.22V550.278&#10;&#9;&#9;c13.618,2.796,24.296,8.528,32.108,17.203c7.739,8.814,12.972,21.32,15.482,37.66l43-6.451&#10;&#9;&#9;c-3.655-26.41-14.619-47.157-32.894-62.353c-14.194-11.86-33.4-18.993-57.696-21.287v-19.922h-24.512v19.922&#10;&#9;&#9;c-27.734,2.759-48.592,10.286-62.639,22.685c-21.001,18.384-31.536,42.431-31.536,72.066c0,16.733,3.585,31.606,10.821,44.721&#10;&#9;&#9;c7.24,13.152,17.419,23.437,30.677,30.853c17.918,10.073,35.477,16.7,52.676,19.962v132.734&#10;&#9;&#9;c-16.41-1.615-30.461-9.893-42.214-24.799c-8.168-10.499-13.904-26.912-17.199-49.344l-41.855,7.919&#10;&#9;&#9;c1.505,21.61,7.023,39.921,16.484,54.9c9.53,14.979,20.784,25.874,33.899,32.538c13.045,6.737,30.031,11.431,50.885,14.01v41.748&#10;&#9;&#9;h24.512v-42.178c29.242-1.361,52.967-11.717,71.457-31.103c18.348-19.243,27.521-43.326,27.521-72.246&#10;&#9;&#9;c0-13.152-2.224-25.334-6.594-36.622C899.727,721.571,893.493,711.895,885.247,703.69z M787.274,665.2&#10;&#9;&#9;c-18.993-5.695-32.538-13.401-40.493-22.898c-7.956-9.603-11.97-21.5-11.97-35.69c0-14.37,4.73-26.843,14.12-37.341&#10;&#9;&#9;c9.317-10.535,22.076-17.023,38.343-19.529V665.2z M852.067,816.965c-10.609,12.113-24.009,19.137-40.28,21.107V711.069&#10;&#9;&#9;c22.363,7.277,37.341,15.518,44.867,24.729c7.453,9.174,11.251,21.32,11.251,36.515&#10;&#9;&#9;C867.905,790.089,862.602,804.995,852.067,816.965z" style="fill: rgb(255, 255, 255);"/>
</g>
</svg>