<svg version="1.1" id="Capa_1" xmlns="http://www.w3.org/2000/svg" xmlns:xlink="http://www.w3.org/1999/xlink" x="0px" y="0px" width="1200px" height="1200px" viewBox="0 0 1200 1200" enable-background="new 0 0 1200 1200" xml:space="preserve">
<path d="M124.215,343.93v531.062L600.541,1150l476.306-275.009V324.996l-7.133-4.128c-1.47-1.192-3.115-2.086-4.836-2.785&#10;&#9;L600.541,50l-112.94,65.214c-2.41,0.791-4.633,2.076-6.569,3.773L124.215,324.996v6.376&#10;&#9;C122.759,335.546,122.84,339.95,124.215,343.93z M162.661,371.52l52.365,30.021c-0.488,1.685-0.806,3.417-0.806,5.241l1.192,476.477&#10;&#9;l-52.737-30.457V371.52H162.661z M259.06,291.534l413.509,236.973l-80.468,44.86c-0.048-0.034-0.089-0.082-0.136-0.115&#10;&#9;L179.987,337.175L259.06,291.534z M376.605,223.647l415.589,238.153l-80.732,45.009c-0.752-0.596-1.51-1.204-2.384-1.708&#10;&#9;L297.553,269.311L376.605,223.647z M494.158,155.785L911.786,395.12l-81.322,45.329c-1.239-1.296-2.648-2.523-4.268-3.463&#10;&#9;L415.119,201.424L494.158,155.785z M370.198,490.469l79.879,45.778c-0.501,1.721-0.847,3.532-0.847,5.424l1.206,477.292&#10;&#9;l-79.019-45.629L370.198,490.469z M332.917,951.111l-79.018-45.617l-1.219-482.371l79.885,45.754&#10;&#9;c-0.508,1.721-0.854,3.497-0.84,5.345L332.917,951.111z M487.689,557.795l79.933,45.788c-0.521,1.755-0.887,3.612-0.887,5.551&#10;&#9;l1.205,477.669l-79.018-45.64L487.689,557.795z M1038.407,597.986L605.749,846.185l-0.229-91.062L1038.407,506.8V597.986&#10;&#9;L1038.407,597.986z M605.864,890.427l432.543-248.13v91.176L606.103,981.488L605.864,890.427z M1038.407,462.49L605.425,710.882&#10;&#9;l-0.264-100.796l433.246-241.582V462.49z M606.394,1102.249l-0.189-76.532l432.203-247.934v75.03L606.394,1102.249z&#10;&#9; M1018.446,335.649l-69.204,38.576c-1.538-2.122-3.522-3.968-5.94-5.354L532.658,133.55l67.862-39.184L1018.446,335.649z" style="fill: rgb(255, 255, 255);"/>
</svg>